<?xml version="1.0" encoding="iso-8859-1"?>
<!-- Generator: Adobe Illustrator 19.0.0, SVG Export Plug-In . SVG Version: 6.00 Build 0)  -->
<svg version="1.1" id="Layer_1" xmlns="http://www.w3.org/2000/svg" xmlns:xlink="http://www.w3.org/1999/xlink" x="0px" y="0px"
	 viewBox="0 0 511.998 511.998" style="enable-background:new 0 0 511.998 511.998;" xml:space="preserve">
<g>
	<g>
		<path d="M511.232,196.869c-3.104-48.396-25.257-95.638-62.378-133.021C407.971,22.675,356.265,0,303.26,0
			c-48.258,0-92.445,18.679-127.783,54.017c-7.484,7.484-14.409,15.6-20.582,24.118c-8.305,11.458-7.092,27.015,2.883,36.992
			l5.906,5.906l-25.53,40.118c-2.412,3.791-1.868,8.75,1.31,11.927l24.413,24.413c-14.944,13.74-26.18,17.984-38.009,22.449
			c-14.334,5.411-29.156,11.005-49.365,31.214c-20.21,20.21-25.804,35.032-31.214,49.365c-4.909,13.007-9.545,25.292-26.834,42.578
			c-3.745,3.744-3.745,9.814,0,13.559c1.872,1.872,4.325,2.808,6.779,2.808c2.453,0,4.908-0.936,6.779-2.808
			c20.21-20.21,25.804-35.031,31.214-49.365c4.909-13.005,9.545-25.289,26.834-42.578s29.572-21.925,42.579-26.834
			c13.233-4.995,26.887-10.157,44.807-26.819l24.6,24.6c-19.851,18.872-33.686,25.383-48.273,32.241
			c-16.472,7.745-33.504,15.753-58.205,40.453c-24.7,24.701-32.709,41.733-40.454,58.205c-7.369,15.672-14.33,30.475-36.661,52.806
			c-3.745,3.744-3.745,9.814,0,13.559c1.872,1.872,4.325,2.808,6.779,2.808c2.453,0,4.908-0.936,6.779-2.808
			c24.701-24.7,32.71-41.733,40.455-58.205c7.368-15.672,14.328-30.475,36.66-52.806c22.331-22.331,37.134-29.291,52.806-36.66
			c15.446-7.262,31.387-14.759,53.677-36.029l24.534,24.534c-14.908,13.702-26.122,17.927-37.93,22.375
			c-14.319,5.392-29.124,10.967-49.301,31.143c-20.177,20.178-25.754,34.984-31.147,49.303
			c-4.891,12.986-9.511,25.252-26.761,42.502c-17.251,17.253-29.516,21.871-42.502,26.762
			c-14.319,5.393-29.125,10.968-49.303,31.146c-3.745,3.745-3.745,9.815,0,13.56c1.872,1.871,4.325,2.808,6.779,2.808
			c2.453,0,4.908-0.936,6.779-2.808c17.25-17.251,29.516-21.871,42.502-26.762c14.319-5.393,29.125-10.968,49.302-31.146
			c20.178-20.178,25.754-34.983,31.147-49.303c4.891-12.986,9.511-25.251,26.761-42.502c17.25-17.25,29.515-21.869,42.5-26.76
			c13.217-4.977,26.853-10.121,44.741-26.75l24.6,24.6c-19.851,18.872-33.687,25.383-48.271,32.241
			c-16.472,7.745-33.506,15.753-58.205,40.453c-24.7,24.701-32.709,41.733-40.454,58.205c-7.369,15.672-14.328,30.475-36.661,52.806
			c-3.744,3.745-3.744,9.814,0,13.559c1.872,1.872,4.325,2.808,6.779,2.808c2.453,0,4.908-0.936,6.779-2.808
			c24.701-24.7,32.71-41.733,40.455-58.205c7.368-15.672,14.328-30.475,36.66-52.806s37.133-29.291,52.806-36.66
			c15.446-7.262,31.386-14.759,53.677-36.029l24.534,24.534c-14.944,13.741-26.18,17.984-38.009,22.449
			c-14.334,5.411-29.156,11.005-49.365,31.214c-20.21,20.21-25.804,35.031-31.214,49.365c-4.909,13.006-9.545,25.292-26.834,42.578
			c-3.744,3.744-3.744,9.814,0,13.559c1.872,1.872,4.325,2.808,6.779,2.808c2.453,0,4.908-0.936,6.779-2.808
			c20.21-20.21,25.804-35.031,31.214-49.365c4.909-13.005,9.545-25.29,26.834-42.578c17.288-17.288,29.572-21.925,42.579-26.834
			c13.233-4.995,26.887-10.157,44.807-26.82l7.779,7.779c1.849,1.849,4.304,2.808,6.782,2.808c1.71,0,3.431-0.457,4.973-1.393
			l41.021-24.906l6.023,6.023c5.392,5.391,12.561,8.359,20.189,8.359c6.046,0,11.832-1.876,16.732-5.423
			c10.039-7.27,19.48-15.552,28.061-24.614C496.795,294.987,514.443,246.917,511.232,196.869z M345.995,352.492L158.459,164.957
			l19.114-30.035l14.141,14.141l184.862,184.862L345.995,352.492z M447.614,319.043c-7.765,8.201-16.305,15.693-25.383,22.267
			c-1.608,1.165-3.505,1.779-5.486,1.779c-2.506,0-4.862-0.974-6.631-2.743l-11.333-11.333c-0.004-0.004-0.006-0.007-0.01-0.011
			l-216.09-216.089c-0.001-0.001-0.004-0.002-0.005-0.005l-11.338-11.338c-3.274-3.274-3.659-8.397-0.916-12.182
			c5.581-7.702,11.844-15.041,18.615-21.811c29.401-29.4,65.557-45.922,105.049-48.135l11.536,49.302
			c0.831,3.549,3.601,6.319,7.151,7.151l47.309,11.07l11.072,47.31c0.831,3.549,3.601,6.319,7.151,7.15l47.309,11.072l11.075,47.313
			c0.831,3.549,3.601,6.319,7.15,7.15l48.434,11.338C489.937,254.733,475.143,289.966,447.614,319.043z M454.001,189.643
			l-11.075-47.314c-0.831-3.549-3.601-6.319-7.151-7.15l-47.309-11.072l-11.072-47.31c-0.831-3.549-3.601-6.319-7.151-7.15
			l-47.308-11.071l-9.139-39.055c44.162,2.796,86.935,23.076,121.451,57.836c35.464,35.717,54.616,78.703,57.081,121.259
			L454.001,189.643z"/>
	</g>
</g>
<g>
</g>
<g>
</g>
<g>
</g>
<g>
</g>
<g>
</g>
<g>
</g>
<g>
</g>
<g>
</g>
<g>
</g>
<g>
</g>
<g>
</g>
<g>
</g>
<g>
</g>
<g>
</g>
<g>
</g>
</svg>
